<?xml version="1.0" encoding="UTF-8" standalone="no"?>
<!DOCTYPE svg PUBLIC "-//W3C//DTD SVG 1.1//EN"
 "http://www.w3.org/Graphics/SVG/1.1/DTD/svg11.dtd">
<!-- Generated by graphviz version 2.38.0 (20140413.2041)
 -->
<!-- Title: %3 Pages: 1 -->
<svg width="3123pt" height="404pt"
 viewBox="0.00 0.00 3123.23 404.00" xmlns="http://www.w3.org/2000/svg" xmlns:xlink="http://www.w3.org/1999/xlink">
<g id="graph0" class="graph" transform="scale(1 1) rotate(0) translate(4 400)">
<title>%3</title>
<polygon fill="white" stroke="none" points="-4,4 -4,-400 3119.23,-400 3119.23,4 -4,4"/>
<!-- workflow.cwl#hisat2_samtools_2 -->
<g id="node1" class="node"><title>workflow.cwl#hisat2_samtools_2</title>
<ellipse fill="none" stroke="black" cx="560.84" cy="-306" rx="76.8869" ry="18"/>
<text text-anchor="middle" x="560.84" y="-302.3" font-family="Times,serif" font-size="14.00">hisat2_samtools_2</text>
</g>
<!-- workflow.cwl#hisat2_samtools_stringtie_2 -->
<g id="node20" class="node"><title>workflow.cwl#hisat2_samtools_stringtie_2</title>
<ellipse fill="none" stroke="black" cx="347.84" cy="-234" rx="109.681" ry="18"/>
<text text-anchor="middle" x="347.84" y="-230.3" font-family="Times,serif" font-size="14.00">hisat2_samtools_stringtie_2</text>
</g>
<!-- workflow.cwl#hisat2_samtools_2&#45;&gt;workflow.cwl#hisat2_samtools_stringtie_2 -->
<g id="edge52" class="edge"><title>workflow.cwl#hisat2_samtools_2&#45;&gt;workflow.cwl#hisat2_samtools_stringtie_2</title>
<path fill="none" stroke="black" d="M518.248,-291.003C485.512,-280.244 439.992,-265.284 404.233,-253.533"/>
<polygon fill="black" stroke="black" points="405.017,-250.107 394.425,-250.309 402.832,-256.757 405.017,-250.107"/>
</g>
<!-- workflow.cwl#hisat2_samtools_htseq_2 -->
<g id="node22" class="node"><title>workflow.cwl#hisat2_samtools_htseq_2</title>
<ellipse fill="none" stroke="black" cx="1471.84" cy="-234" rx="99.3824" ry="18"/>
<text text-anchor="middle" x="1471.84" y="-230.3" font-family="Times,serif" font-size="14.00">hisat2_samtools_htseq_2</text>
</g>
<!-- workflow.cwl#hisat2_samtools_2&#45;&gt;workflow.cwl#hisat2_samtools_htseq_2 -->
<g id="edge51" class="edge"><title>workflow.cwl#hisat2_samtools_2&#45;&gt;workflow.cwl#hisat2_samtools_htseq_2</title>
<path fill="none" stroke="black" d="M614.781,-293.097C625.366,-291.113 636.418,-289.285 646.84,-288 963.069,-249.004 1045.89,-284.595 1362.84,-252 1372.49,-251.008 1382.58,-249.744 1392.56,-248.353"/>
<polygon fill="black" stroke="black" points="1393.09,-251.813 1402.5,-246.927 1392.1,-244.884 1393.09,-251.813"/>
</g>
<!-- workflow.cwl#hisat2_samtools_folder -->
<g id="node24" class="node"><title>workflow.cwl#hisat2_samtools_folder</title>
<ellipse fill="none" stroke="black" cx="568.84" cy="-234" rx="92.8835" ry="18"/>
<text text-anchor="middle" x="568.84" y="-230.3" font-family="Times,serif" font-size="14.00">hisat2_samtools_folder</text>
</g>
<!-- workflow.cwl#hisat2_samtools_2&#45;&gt;workflow.cwl#hisat2_samtools_folder -->
<g id="edge42" class="edge"><title>workflow.cwl#hisat2_samtools_2&#45;&gt;workflow.cwl#hisat2_samtools_folder</title>
<path fill="none" stroke="black" d="M562.818,-287.697C563.699,-279.983 564.759,-270.712 565.742,-262.112"/>
<polygon fill="black" stroke="black" points="569.227,-262.437 566.885,-252.104 562.273,-261.642 569.227,-262.437"/>
</g>
<!-- workflow.cwl#hisat2_samtools_htseq_dexseq -->
<g id="node2" class="node"><title>workflow.cwl#hisat2_samtools_htseq_dexseq</title>
<ellipse fill="none" stroke="black" cx="1829.84" cy="-90" rx="119.679" ry="18"/>
<text text-anchor="middle" x="1829.84" y="-86.3" font-family="Times,serif" font-size="14.00">hisat2_samtools_htseq_dexseq</text>
</g>
<!-- workflow.cwl#hisat2_samtools_htseq_dexseq_folder -->
<g id="node12" class="node"><title>workflow.cwl#hisat2_samtools_htseq_dexseq_folder</title>
<ellipse fill="none" stroke="black" cx="1829.84" cy="-18" rx="144.874" ry="18"/>
<text text-anchor="middle" x="1829.84" y="-14.3" font-family="Times,serif" font-size="14.00">hisat2_samtools_htseq_dexseq_folder</text>
</g>
<!-- workflow.cwl#hisat2_samtools_htseq_dexseq&#45;&gt;workflow.cwl#hisat2_samtools_htseq_dexseq_folder -->
<g id="edge20" class="edge"><title>workflow.cwl#hisat2_samtools_htseq_dexseq&#45;&gt;workflow.cwl#hisat2_samtools_htseq_dexseq_folder</title>
<path fill="none" stroke="black" d="M1829.84,-71.6966C1829.84,-63.9827 1829.84,-54.7125 1829.84,-46.1124"/>
<polygon fill="black" stroke="black" points="1833.34,-46.1043 1829.84,-36.1043 1826.34,-46.1044 1833.34,-46.1043"/>
</g>
<!-- workflow.cwl#hisat2_samtools_stringtie_3 -->
<g id="node3" class="node"><title>workflow.cwl#hisat2_samtools_stringtie_3</title>
<ellipse fill="none" stroke="black" cx="109.84" cy="-234" rx="109.681" ry="18"/>
<text text-anchor="middle" x="109.84" y="-230.3" font-family="Times,serif" font-size="14.00">hisat2_samtools_stringtie_3</text>
</g>
<!-- workflow.cwl#hisat2_samtools_stringtie_prepde -->
<g id="node4" class="node"><title>workflow.cwl#hisat2_samtools_stringtie_prepde</title>
<ellipse fill="none" stroke="black" cx="705.84" cy="-162" rx="129.177" ry="18"/>
<text text-anchor="middle" x="705.84" y="-158.3" font-family="Times,serif" font-size="14.00">hisat2_samtools_stringtie_prepde</text>
</g>
<!-- workflow.cwl#hisat2_samtools_stringtie_3&#45;&gt;workflow.cwl#hisat2_samtools_stringtie_prepde -->
<g id="edge37" class="edge"><title>workflow.cwl#hisat2_samtools_stringtie_3&#45;&gt;workflow.cwl#hisat2_samtools_stringtie_prepde</title>
<path fill="none" stroke="black" d="M188.527,-221.405C201.967,-219.526 215.797,-217.656 228.84,-216 353.979,-200.113 497.929,-184.481 594.677,-174.358"/>
<polygon fill="black" stroke="black" points="595.186,-177.824 604.768,-173.305 594.458,-170.862 595.186,-177.824"/>
</g>
<!-- workflow.cwl#hisat2_samtools_stringtie_folder -->
<g id="node21" class="node"><title>workflow.cwl#hisat2_samtools_stringtie_folder</title>
<ellipse fill="none" stroke="black" cx="389.84" cy="-162" rx="126.178" ry="18"/>
<text text-anchor="middle" x="389.84" y="-158.3" font-family="Times,serif" font-size="14.00">hisat2_samtools_stringtie_folder</text>
</g>
<!-- workflow.cwl#hisat2_samtools_stringtie_3&#45;&gt;workflow.cwl#hisat2_samtools_stringtie_folder -->
<g id="edge10" class="edge"><title>workflow.cwl#hisat2_samtools_stringtie_3&#45;&gt;workflow.cwl#hisat2_samtools_stringtie_folder</title>
<path fill="none" stroke="black" d="M167.517,-218.581C211.906,-207.483 273.421,-192.105 320.493,-180.337"/>
<polygon fill="black" stroke="black" points="321.455,-183.704 330.308,-177.883 319.757,-176.913 321.455,-183.704"/>
</g>
<!-- workflow.cwl#hisat2_samtools_stringtie_prepde_deseq2 -->
<g id="node36" class="node"><title>workflow.cwl#hisat2_samtools_stringtie_prepde_deseq2</title>
<ellipse fill="none" stroke="black" cx="705.84" cy="-90" rx="157.872" ry="18"/>
<text text-anchor="middle" x="705.84" y="-86.3" font-family="Times,serif" font-size="14.00">hisat2_samtools_stringtie_prepde_deseq2</text>
</g>
<!-- workflow.cwl#hisat2_samtools_stringtie_prepde&#45;&gt;workflow.cwl#hisat2_samtools_stringtie_prepde_deseq2 -->
<g id="edge54" class="edge"><title>workflow.cwl#hisat2_samtools_stringtie_prepde&#45;&gt;workflow.cwl#hisat2_samtools_stringtie_prepde_deseq2</title>
<path fill="none" stroke="black" d="M705.84,-143.697C705.84,-135.983 705.84,-126.712 705.84,-118.112"/>
<polygon fill="black" stroke="black" points="709.34,-118.104 705.84,-108.104 702.34,-118.104 709.34,-118.104"/>
</g>
<!-- workflow.cwl#hisat2_samtools_stringtie_4 -->
<g id="node5" class="node"><title>workflow.cwl#hisat2_samtools_stringtie_4</title>
<ellipse fill="none" stroke="black" cx="1027.84" cy="-234" rx="109.681" ry="18"/>
<text text-anchor="middle" x="1027.84" y="-230.3" font-family="Times,serif" font-size="14.00">hisat2_samtools_stringtie_4</text>
</g>
<!-- workflow.cwl#hisat2_samtools_stringtie_4&#45;&gt;workflow.cwl#hisat2_samtools_stringtie_prepde -->
<g id="edge39" class="edge"><title>workflow.cwl#hisat2_samtools_stringtie_4&#45;&gt;workflow.cwl#hisat2_samtools_stringtie_prepde</title>
<path fill="none" stroke="black" d="M964.608,-219.254C912.342,-207.892 837.952,-191.72 782.337,-179.63"/>
<polygon fill="black" stroke="black" points="783.046,-176.202 772.531,-177.498 781.559,-183.042 783.046,-176.202"/>
</g>
<!-- workflow.cwl#hisat2_samtools_stringtie_4&#45;&gt;workflow.cwl#hisat2_samtools_stringtie_folder -->
<g id="edge12" class="edge"><title>workflow.cwl#hisat2_samtools_stringtie_4&#45;&gt;workflow.cwl#hisat2_samtools_stringtie_folder</title>
<path fill="none" stroke="black" d="M949.486,-221.351C935.944,-219.468 921.994,-217.611 908.84,-216 832.579,-206.663 629.455,-186.424 501.111,-173.834"/>
<polygon fill="black" stroke="black" points="501.146,-170.321 490.852,-172.828 500.463,-177.287 501.146,-170.321"/>
</g>
<!-- workflow.cwl#star_samtools_stringtie_1 -->
<g id="node6" class="node"><title>workflow.cwl#star_samtools_stringtie_1</title>
<ellipse fill="none" stroke="black" cx="2382.84" cy="-234" rx="101.282" ry="18"/>
<text text-anchor="middle" x="2382.84" y="-230.3" font-family="Times,serif" font-size="14.00">star_samtools_stringtie_1</text>
</g>
<!-- workflow.cwl#star_samtools_stringtie_folder -->
<g id="node9" class="node"><title>workflow.cwl#star_samtools_stringtie_folder</title>
<ellipse fill="none" stroke="black" cx="2420.84" cy="-162" rx="118.079" ry="18"/>
<text text-anchor="middle" x="2420.84" y="-158.3" font-family="Times,serif" font-size="14.00">star_samtools_stringtie_folder</text>
</g>
<!-- workflow.cwl#star_samtools_stringtie_1&#45;&gt;workflow.cwl#star_samtools_stringtie_folder -->
<g id="edge69" class="edge"><title>workflow.cwl#star_samtools_stringtie_1&#45;&gt;workflow.cwl#star_samtools_stringtie_folder</title>
<path fill="none" stroke="black" d="M2392.04,-216.055C2396.41,-208.007 2401.73,-198.205 2406.6,-189.226"/>
<polygon fill="black" stroke="black" points="2409.77,-190.734 2411.46,-180.275 2403.62,-187.394 2409.77,-190.734"/>
</g>
<!-- workflow.cwl#star_samtools_stringtie_prepde -->
<g id="node29" class="node"><title>workflow.cwl#star_samtools_stringtie_prepde</title>
<ellipse fill="none" stroke="black" cx="2753.84" cy="-162" rx="120.779" ry="18"/>
<text text-anchor="middle" x="2753.84" y="-158.3" font-family="Times,serif" font-size="14.00">star_samtools_stringtie_prepde</text>
</g>
<!-- workflow.cwl#star_samtools_stringtie_1&#45;&gt;workflow.cwl#star_samtools_stringtie_prepde -->
<g id="edge65" class="edge"><title>workflow.cwl#star_samtools_stringtie_1&#45;&gt;workflow.cwl#star_samtools_stringtie_prepde</title>
<path fill="none" stroke="black" d="M2449.6,-220.405C2512,-208.63 2605.34,-191.018 2672.17,-178.41"/>
<polygon fill="black" stroke="black" points="2673.06,-181.803 2682.24,-176.509 2671.77,-174.924 2673.06,-181.803"/>
</g>
<!-- workflow.cwl#hisat2_samtools_htseq_4 -->
<g id="node7" class="node"><title>workflow.cwl#hisat2_samtools_htseq_4</title>
<ellipse fill="none" stroke="black" cx="1905.84" cy="-234" rx="99.3824" ry="18"/>
<text text-anchor="middle" x="1905.84" y="-230.3" font-family="Times,serif" font-size="14.00">hisat2_samtools_htseq_4</text>
</g>
<!-- workflow.cwl#hisat2_samtools_htseq_folder -->
<g id="node28" class="node"><title>workflow.cwl#hisat2_samtools_htseq_folder</title>
<ellipse fill="none" stroke="black" cx="1688.84" cy="-162" rx="116.18" ry="18"/>
<text text-anchor="middle" x="1688.84" y="-158.3" font-family="Times,serif" font-size="14.00">hisat2_samtools_htseq_folder</text>
</g>
<!-- workflow.cwl#hisat2_samtools_htseq_4&#45;&gt;workflow.cwl#hisat2_samtools_htseq_folder -->
<g id="edge31" class="edge"><title>workflow.cwl#hisat2_samtools_htseq_4&#45;&gt;workflow.cwl#hisat2_samtools_htseq_folder</title>
<path fill="none" stroke="black" d="M1859.29,-217.983C1826.28,-207.334 1781.76,-192.974 1746.5,-181.6"/>
<polygon fill="black" stroke="black" points="1747.41,-178.215 1736.82,-178.476 1745.26,-184.877 1747.41,-178.215"/>
</g>
<!-- workflow.cwl#star_samtools_folder -->
<g id="node8" class="node"><title>workflow.cwl#star_samtools_folder</title>
<ellipse fill="none" stroke="black" cx="2587.84" cy="-234" rx="85.2851" ry="18"/>
<text text-anchor="middle" x="2587.84" y="-230.3" font-family="Times,serif" font-size="14.00">star_samtools_folder</text>
</g>
<!-- workflow.cwl#hisat2_samtools_3 -->
<g id="node10" class="node"><title>workflow.cwl#hisat2_samtools_3</title>
<ellipse fill="none" stroke="black" cx="389.84" cy="-306" rx="76.8869" ry="18"/>
<text text-anchor="middle" x="389.84" y="-302.3" font-family="Times,serif" font-size="14.00">hisat2_samtools_3</text>
</g>
<!-- workflow.cwl#hisat2_samtools_3&#45;&gt;workflow.cwl#hisat2_samtools_stringtie_3 -->
<g id="edge26" class="edge"><title>workflow.cwl#hisat2_samtools_3&#45;&gt;workflow.cwl#hisat2_samtools_stringtie_3</title>
<path fill="none" stroke="black" d="M339.458,-292.405C294.143,-281.076 227.216,-264.344 177.294,-251.863"/>
<polygon fill="black" stroke="black" points="178.098,-248.457 167.548,-249.427 176.401,-255.248 178.098,-248.457"/>
</g>
<!-- workflow.cwl#hisat2_samtools_3&#45;&gt;workflow.cwl#hisat2_samtools_folder -->
<g id="edge40" class="edge"><title>workflow.cwl#hisat2_samtools_3&#45;&gt;workflow.cwl#hisat2_samtools_folder</title>
<path fill="none" stroke="black" d="M427.802,-290.155C454.632,-279.662 490.837,-265.504 519.847,-254.16"/>
<polygon fill="black" stroke="black" points="521.346,-257.331 529.385,-250.429 518.797,-250.812 521.346,-257.331"/>
</g>
<!-- workflow.cwl#hisat2_samtools_htseq_3 -->
<g id="node45" class="node"><title>workflow.cwl#hisat2_samtools_htseq_3</title>
<ellipse fill="none" stroke="black" cx="1254.84" cy="-234" rx="99.3824" ry="18"/>
<text text-anchor="middle" x="1254.84" y="-230.3" font-family="Times,serif" font-size="14.00">hisat2_samtools_htseq_3</text>
</g>
<!-- workflow.cwl#hisat2_samtools_3&#45;&gt;workflow.cwl#hisat2_samtools_htseq_3 -->
<g id="edge24" class="edge"><title>workflow.cwl#hisat2_samtools_3&#45;&gt;workflow.cwl#hisat2_samtools_htseq_3</title>
<path fill="none" stroke="black" d="M443.608,-293.033C453.931,-291.08 464.687,-289.281 474.84,-288 771.584,-250.575 849.387,-283.295 1146.84,-252 1156.16,-251.02 1165.9,-249.786 1175.55,-248.432"/>
<polygon fill="black" stroke="black" points="1176.16,-251.88 1185.55,-246.984 1175.15,-244.952 1176.16,-251.88"/>
</g>
<!-- workflow.cwl#hisat2_samtools_htseq_1 -->
<g id="node11" class="node"><title>workflow.cwl#hisat2_samtools_htseq_1</title>
<ellipse fill="none" stroke="black" cx="1688.84" cy="-234" rx="99.3824" ry="18"/>
<text text-anchor="middle" x="1688.84" y="-230.3" font-family="Times,serif" font-size="14.00">hisat2_samtools_htseq_1</text>
</g>
<!-- workflow.cwl#hisat2_samtools_htseq_1&#45;&gt;workflow.cwl#hisat2_samtools_htseq_folder -->
<g id="edge30" class="edge"><title>workflow.cwl#hisat2_samtools_htseq_1&#45;&gt;workflow.cwl#hisat2_samtools_htseq_folder</title>
<path fill="none" stroke="black" d="M1688.84,-215.697C1688.84,-207.983 1688.84,-198.712 1688.84,-190.112"/>
<polygon fill="black" stroke="black" points="1692.34,-190.104 1688.84,-180.104 1685.34,-190.104 1692.34,-190.104"/>
</g>
<!-- workflow.cwl#htseq_prepare_folder -->
<g id="node13" class="node"><title>workflow.cwl#htseq_prepare_folder</title>
<ellipse fill="none" stroke="black" cx="1970.84" cy="-162" rx="85.2851" ry="18"/>
<text text-anchor="middle" x="1970.84" y="-158.3" font-family="Times,serif" font-size="14.00">htseq_prepare_folder</text>
</g>
<!-- workflow.cwl#htseq_prepare_folder&#45;&gt;workflow.cwl#hisat2_samtools_htseq_dexseq -->
<g id="edge14" class="edge"><title>workflow.cwl#htseq_prepare_folder&#45;&gt;workflow.cwl#hisat2_samtools_htseq_dexseq</title>
<path fill="none" stroke="black" d="M1938.85,-145.116C1919.17,-135.348 1893.72,-122.714 1872.36,-112.11"/>
<polygon fill="black" stroke="black" points="1873.69,-108.863 1863.18,-107.552 1870.58,-115.133 1873.69,-108.863"/>
</g>
<!-- workflow.cwl#star_samtools_3 -->
<g id="node14" class="node"><title>workflow.cwl#star_samtools_3</title>
<ellipse fill="none" stroke="black" cx="2722.84" cy="-306" rx="68.4888" ry="18"/>
<text text-anchor="middle" x="2722.84" y="-302.3" font-family="Times,serif" font-size="14.00">star_samtools_3</text>
</g>
<!-- workflow.cwl#star_samtools_3&#45;&gt;workflow.cwl#star_samtools_folder -->
<g id="edge7" class="edge"><title>workflow.cwl#star_samtools_3&#45;&gt;workflow.cwl#star_samtools_folder</title>
<path fill="none" stroke="black" d="M2693.21,-289.638C2673.88,-279.612 2648.41,-266.406 2627.36,-255.489"/>
<polygon fill="black" stroke="black" points="2628.82,-252.307 2618.33,-250.811 2625.6,-258.521 2628.82,-252.307"/>
</g>
<!-- workflow.cwl#star_samtools_stringtie_3 -->
<g id="node34" class="node"><title>workflow.cwl#star_samtools_stringtie_3</title>
<ellipse fill="none" stroke="black" cx="2792.84" cy="-234" rx="101.282" ry="18"/>
<text text-anchor="middle" x="2792.84" y="-230.3" font-family="Times,serif" font-size="14.00">star_samtools_stringtie_3</text>
</g>
<!-- workflow.cwl#star_samtools_3&#45;&gt;workflow.cwl#star_samtools_stringtie_3 -->
<g id="edge15" class="edge"><title>workflow.cwl#star_samtools_3&#45;&gt;workflow.cwl#star_samtools_stringtie_3</title>
<path fill="none" stroke="black" d="M2739.43,-288.411C2748.19,-279.648 2759.11,-268.732 2768.78,-259.057"/>
<polygon fill="black" stroke="black" points="2771.29,-261.502 2775.88,-251.956 2766.34,-256.552 2771.29,-261.502"/>
</g>
<!-- workflow.cwl#hisat2_1 -->
<g id="node15" class="node"><title>workflow.cwl#hisat2_1</title>
<ellipse fill="none" stroke="black" cx="768.84" cy="-378" rx="40.0939" ry="18"/>
<text text-anchor="middle" x="768.84" y="-374.3" font-family="Times,serif" font-size="14.00">hisat2_1</text>
</g>
<!-- workflow.cwl#hisat2_folder -->
<g id="node43" class="node"><title>workflow.cwl#hisat2_folder</title>
<ellipse fill="none" stroke="black" cx="712.84" cy="-306" rx="57.3905" ry="18"/>
<text text-anchor="middle" x="712.84" y="-302.3" font-family="Times,serif" font-size="14.00">hisat2_folder</text>
</g>
<!-- workflow.cwl#hisat2_1&#45;&gt;workflow.cwl#hisat2_folder -->
<g id="edge47" class="edge"><title>workflow.cwl#hisat2_1&#45;&gt;workflow.cwl#hisat2_folder</title>
<path fill="none" stroke="black" d="M755.852,-360.765C748.955,-352.143 740.332,-341.365 732.622,-331.727"/>
<polygon fill="black" stroke="black" points="735.127,-329.256 726.147,-323.633 729.661,-333.629 735.127,-329.256"/>
</g>
<!-- workflow.cwl#hisat2_samtools_1 -->
<g id="node44" class="node"><title>workflow.cwl#hisat2_samtools_1</title>
<ellipse fill="none" stroke="black" cx="864.84" cy="-306" rx="76.8869" ry="18"/>
<text text-anchor="middle" x="864.84" y="-302.3" font-family="Times,serif" font-size="14.00">hisat2_samtools_1</text>
</g>
<!-- workflow.cwl#hisat2_1&#45;&gt;workflow.cwl#hisat2_samtools_1 -->
<g id="edge45" class="edge"><title>workflow.cwl#hisat2_1&#45;&gt;workflow.cwl#hisat2_samtools_1</title>
<path fill="none" stroke="black" d="M789.199,-362.155C802.266,-352.627 819.478,-340.077 834.182,-329.355"/>
<polygon fill="black" stroke="black" points="836.481,-332.01 842.499,-323.29 832.357,-326.354 836.481,-332.01"/>
</g>
<!-- workflow.cwl#star_samtools_stringtie_prepde_deseq2 -->
<g id="node16" class="node"><title>workflow.cwl#star_samtools_stringtie_prepde_deseq2</title>
<ellipse fill="none" stroke="black" cx="2639.84" cy="-90" rx="149.473" ry="18"/>
<text text-anchor="middle" x="2639.84" y="-86.3" font-family="Times,serif" font-size="14.00">star_samtools_stringtie_prepde_deseq2</text>
</g>
<!-- workflow.cwl#star_samtools_stringtie_prepde_deseq2_folder -->
<g id="node35" class="node"><title>workflow.cwl#star_samtools_stringtie_prepde_deseq2_folder</title>
<ellipse fill="none" stroke="black" cx="2639.84" cy="-18" rx="174.669" ry="18"/>
<text text-anchor="middle" x="2639.84" y="-14.3" font-family="Times,serif" font-size="14.00">star_samtools_stringtie_prepde_deseq2_folder</text>
</g>
<!-- workflow.cwl#star_samtools_stringtie_prepde_deseq2&#45;&gt;workflow.cwl#star_samtools_stringtie_prepde_deseq2_folder -->
<g id="edge23" class="edge"><title>workflow.cwl#star_samtools_stringtie_prepde_deseq2&#45;&gt;workflow.cwl#star_samtools_stringtie_prepde_deseq2_folder</title>
<path fill="none" stroke="black" d="M2639.84,-71.6966C2639.84,-63.9827 2639.84,-54.7125 2639.84,-46.1124"/>
<polygon fill="black" stroke="black" points="2643.34,-46.1043 2639.84,-36.1043 2636.34,-46.1044 2643.34,-46.1043"/>
</g>
<!-- workflow.cwl#hisat2_3 -->
<g id="node17" class="node"><title>workflow.cwl#hisat2_3</title>
<ellipse fill="none" stroke="black" cx="479.84" cy="-378" rx="40.0939" ry="18"/>
<text text-anchor="middle" x="479.84" y="-374.3" font-family="Times,serif" font-size="14.00">hisat2_3</text>
</g>
<!-- workflow.cwl#hisat2_3&#45;&gt;workflow.cwl#hisat2_samtools_3 -->
<g id="edge50" class="edge"><title>workflow.cwl#hisat2_3&#45;&gt;workflow.cwl#hisat2_samtools_3</title>
<path fill="none" stroke="black" d="M460.312,-361.811C448.238,-352.421 432.518,-340.194 418.989,-329.671"/>
<polygon fill="black" stroke="black" points="420.943,-326.757 410.9,-323.38 416.645,-332.282 420.943,-326.757"/>
</g>
<!-- workflow.cwl#hisat2_3&#45;&gt;workflow.cwl#hisat2_folder -->
<g id="edge49" class="edge"><title>workflow.cwl#hisat2_3&#45;&gt;workflow.cwl#hisat2_folder</title>
<path fill="none" stroke="black" d="M512.238,-367.267C551.38,-355.507 617.645,-335.6 663.236,-321.903"/>
<polygon fill="black" stroke="black" points="664.349,-325.223 672.919,-318.994 662.334,-318.519 664.349,-325.223"/>
</g>
<!-- workflow.cwl#hisat2_samtools_stringtie_prepde_deseq2_folder -->
<g id="node18" class="node"><title>workflow.cwl#hisat2_samtools_stringtie_prepde_deseq2_folder</title>
<ellipse fill="none" stroke="black" cx="705.84" cy="-18" rx="183.068" ry="18"/>
<text text-anchor="middle" x="705.84" y="-14.3" font-family="Times,serif" font-size="14.00">hisat2_samtools_stringtie_prepde_deseq2_folder</text>
</g>
<!-- workflow.cwl#star_2 -->
<g id="node19" class="node"><title>workflow.cwl#star_2</title>
<ellipse fill="none" stroke="black" cx="2824.84" cy="-378" rx="32.4942" ry="18"/>
<text text-anchor="middle" x="2824.84" y="-374.3" font-family="Times,serif" font-size="14.00">star_2</text>
</g>
<!-- workflow.cwl#star_samtools_2 -->
<g id="node33" class="node"><title>workflow.cwl#star_samtools_2</title>
<ellipse fill="none" stroke="black" cx="2876.84" cy="-306" rx="68.4888" ry="18"/>
<text text-anchor="middle" x="2876.84" y="-302.3" font-family="Times,serif" font-size="14.00">star_samtools_2</text>
</g>
<!-- workflow.cwl#star_2&#45;&gt;workflow.cwl#star_samtools_2 -->
<g id="edge22" class="edge"><title>workflow.cwl#star_2&#45;&gt;workflow.cwl#star_samtools_2</title>
<path fill="none" stroke="black" d="M2836.64,-361.116C2843.04,-352.505 2851.09,-341.667 2858.3,-331.957"/>
<polygon fill="black" stroke="black" points="2861.21,-333.912 2864.36,-323.797 2855.59,-329.738 2861.21,-333.912"/>
</g>
<!-- workflow.cwl#star_folder -->
<g id="node37" class="node"><title>workflow.cwl#star_folder</title>
<ellipse fill="none" stroke="black" cx="2587.84" cy="-306" rx="48.9926" ry="18"/>
<text text-anchor="middle" x="2587.84" y="-302.3" font-family="Times,serif" font-size="14.00">star_folder</text>
</g>
<!-- workflow.cwl#star_2&#45;&gt;workflow.cwl#star_folder -->
<g id="edge58" class="edge"><title>workflow.cwl#star_2&#45;&gt;workflow.cwl#star_folder</title>
<path fill="none" stroke="black" d="M2796.72,-368.695C2756.69,-356.871 2682.77,-335.038 2634.46,-320.77"/>
<polygon fill="black" stroke="black" points="2635.44,-317.411 2624.86,-317.934 2633.46,-324.124 2635.44,-317.411"/>
</g>
<!-- workflow.cwl#hisat2_samtools_stringtie_2&#45;&gt;workflow.cwl#hisat2_samtools_stringtie_prepde -->
<g id="edge36" class="edge"><title>workflow.cwl#hisat2_samtools_stringtie_2&#45;&gt;workflow.cwl#hisat2_samtools_stringtie_prepde</title>
<path fill="none" stroke="black" d="M415.598,-219.751C474.863,-208.163 561.081,-191.305 624.147,-178.973"/>
<polygon fill="black" stroke="black" points="624.92,-182.389 634.063,-177.035 623.577,-175.519 624.92,-182.389"/>
</g>
<!-- workflow.cwl#hisat2_samtools_stringtie_2&#45;&gt;workflow.cwl#hisat2_samtools_stringtie_folder -->
<g id="edge9" class="edge"><title>workflow.cwl#hisat2_samtools_stringtie_2&#45;&gt;workflow.cwl#hisat2_samtools_stringtie_folder</title>
<path fill="none" stroke="black" d="M358.007,-216.055C362.887,-207.922 368.841,-197.998 374.275,-188.943"/>
<polygon fill="black" stroke="black" points="377.331,-190.651 379.475,-180.275 371.329,-187.049 377.331,-190.651"/>
</g>
<!-- workflow.cwl#hisat2_samtools_htseq_2&#45;&gt;workflow.cwl#hisat2_samtools_htseq_folder -->
<g id="edge28" class="edge"><title>workflow.cwl#hisat2_samtools_htseq_2&#45;&gt;workflow.cwl#hisat2_samtools_htseq_folder</title>
<path fill="none" stroke="black" d="M1518.39,-217.983C1551.4,-207.334 1595.92,-192.974 1631.18,-181.6"/>
<polygon fill="black" stroke="black" points="1632.42,-184.877 1640.86,-178.476 1630.27,-178.215 1632.42,-184.877"/>
</g>
<!-- workflow.cwl#hisat2_4 -->
<g id="node23" class="node"><title>workflow.cwl#hisat2_4</title>
<ellipse fill="none" stroke="black" cx="923.84" cy="-378" rx="40.0939" ry="18"/>
<text text-anchor="middle" x="923.84" y="-374.3" font-family="Times,serif" font-size="14.00">hisat2_4</text>
</g>
<!-- workflow.cwl#hisat2_samtools_4 -->
<g id="node25" class="node"><title>workflow.cwl#hisat2_samtools_4</title>
<ellipse fill="none" stroke="black" cx="1035.84" cy="-306" rx="76.8869" ry="18"/>
<text text-anchor="middle" x="1035.84" y="-302.3" font-family="Times,serif" font-size="14.00">hisat2_samtools_4</text>
</g>
<!-- workflow.cwl#hisat2_4&#45;&gt;workflow.cwl#hisat2_samtools_4 -->
<g id="edge1" class="edge"><title>workflow.cwl#hisat2_4&#45;&gt;workflow.cwl#hisat2_samtools_4</title>
<path fill="none" stroke="black" d="M946.236,-363.003C962.036,-353.128 983.498,-339.714 1001.46,-328.489"/>
<polygon fill="black" stroke="black" points="1003.33,-331.448 1009.95,-323.18 999.617,-325.512 1003.33,-331.448"/>
</g>
<!-- workflow.cwl#hisat2_4&#45;&gt;workflow.cwl#hisat2_folder -->
<g id="edge46" class="edge"><title>workflow.cwl#hisat2_4&#45;&gt;workflow.cwl#hisat2_folder</title>
<path fill="none" stroke="black" d="M892.251,-366.52C857.309,-354.928 800.628,-336.124 760.332,-322.756"/>
<polygon fill="black" stroke="black" points="761.313,-319.394 750.72,-319.567 759.109,-326.037 761.313,-319.394"/>
</g>
<!-- workflow.cwl#hisat2_samtools_4&#45;&gt;workflow.cwl#hisat2_samtools_stringtie_4 -->
<g id="edge19" class="edge"><title>workflow.cwl#hisat2_samtools_4&#45;&gt;workflow.cwl#hisat2_samtools_stringtie_4</title>
<path fill="none" stroke="black" d="M1033.86,-287.697C1032.98,-279.983 1031.92,-270.712 1030.94,-262.112"/>
<polygon fill="black" stroke="black" points="1034.41,-261.642 1029.8,-252.104 1027.45,-262.437 1034.41,-261.642"/>
</g>
<!-- workflow.cwl#hisat2_samtools_4&#45;&gt;workflow.cwl#hisat2_samtools_htseq_4 -->
<g id="edge17" class="edge"><title>workflow.cwl#hisat2_samtools_4&#45;&gt;workflow.cwl#hisat2_samtools_htseq_4</title>
<path fill="none" stroke="black" d="M1110.56,-301.911C1247.15,-295.794 1546.13,-280.229 1796.84,-252 1806.23,-250.942 1816.06,-249.661 1825.79,-248.281"/>
<polygon fill="black" stroke="black" points="1826.5,-251.715 1835.89,-246.812 1825.49,-244.788 1826.5,-251.715"/>
</g>
<!-- workflow.cwl#hisat2_samtools_4&#45;&gt;workflow.cwl#hisat2_samtools_folder -->
<g id="edge43" class="edge"><title>workflow.cwl#hisat2_samtools_4&#45;&gt;workflow.cwl#hisat2_samtools_folder</title>
<path fill="none" stroke="black" d="M980.617,-293.376C970.724,-291.459 960.493,-289.584 950.84,-288 827.027,-267.684 794.965,-270.317 670.84,-252 662.671,-250.794 654.143,-249.473 645.651,-248.117"/>
<polygon fill="black" stroke="black" points="646.152,-244.652 635.722,-246.513 645.036,-251.563 646.152,-244.652"/>
</g>
<!-- workflow.cwl#star_1 -->
<g id="node26" class="node"><title>workflow.cwl#star_1</title>
<ellipse fill="none" stroke="black" cx="2503.84" cy="-378" rx="32.4942" ry="18"/>
<text text-anchor="middle" x="2503.84" y="-374.3" font-family="Times,serif" font-size="14.00">star_1</text>
</g>
<!-- workflow.cwl#star_samtools_1 -->
<g id="node27" class="node"><title>workflow.cwl#star_samtools_1</title>
<ellipse fill="none" stroke="black" cx="2452.84" cy="-306" rx="68.4888" ry="18"/>
<text text-anchor="middle" x="2452.84" y="-302.3" font-family="Times,serif" font-size="14.00">star_samtools_1</text>
</g>
<!-- workflow.cwl#star_1&#45;&gt;workflow.cwl#star_samtools_1 -->
<g id="edge18" class="edge"><title>workflow.cwl#star_1&#45;&gt;workflow.cwl#star_samtools_1</title>
<path fill="none" stroke="black" d="M2492.27,-361.116C2485.99,-352.505 2478.1,-341.667 2471.02,-331.957"/>
<polygon fill="black" stroke="black" points="2473.8,-329.819 2465.08,-323.797 2468.14,-333.941 2473.8,-329.819"/>
</g>
<!-- workflow.cwl#star_1&#45;&gt;workflow.cwl#star_folder -->
<g id="edge61" class="edge"><title>workflow.cwl#star_1&#45;&gt;workflow.cwl#star_folder</title>
<path fill="none" stroke="black" d="M2521.25,-362.496C2532.79,-352.879 2548.15,-340.074 2561.22,-329.187"/>
<polygon fill="black" stroke="black" points="2563.56,-331.793 2569,-322.703 2559.07,-326.416 2563.56,-331.793"/>
</g>
<!-- workflow.cwl#star_samtools_1&#45;&gt;workflow.cwl#star_samtools_stringtie_1 -->
<g id="edge27" class="edge"><title>workflow.cwl#star_samtools_1&#45;&gt;workflow.cwl#star_samtools_stringtie_1</title>
<path fill="none" stroke="black" d="M2436.25,-288.411C2427.49,-279.648 2416.57,-268.732 2406.9,-259.057"/>
<polygon fill="black" stroke="black" points="2409.34,-256.552 2399.8,-251.956 2404.39,-261.502 2409.34,-256.552"/>
</g>
<!-- workflow.cwl#star_samtools_1&#45;&gt;workflow.cwl#star_samtools_folder -->
<g id="edge5" class="edge"><title>workflow.cwl#star_samtools_1&#45;&gt;workflow.cwl#star_samtools_folder</title>
<path fill="none" stroke="black" d="M2482.47,-289.638C2501.8,-279.612 2527.27,-266.406 2548.32,-255.489"/>
<polygon fill="black" stroke="black" points="2550.08,-258.521 2557.35,-250.811 2546.86,-252.307 2550.08,-258.521"/>
</g>
<!-- workflow.cwl#hisat2_samtools_htseq_folder&#45;&gt;workflow.cwl#hisat2_samtools_htseq_dexseq -->
<g id="edge53" class="edge"><title>workflow.cwl#hisat2_samtools_htseq_folder&#45;&gt;workflow.cwl#hisat2_samtools_htseq_dexseq</title>
<path fill="none" stroke="black" d="M1721.9,-144.588C1741.61,-134.802 1766.82,-122.285 1787.92,-111.81"/>
<polygon fill="black" stroke="black" points="1789.59,-114.891 1796.99,-107.309 1786.48,-108.621 1789.59,-114.891"/>
</g>
<!-- workflow.cwl#star_samtools_stringtie_prepde&#45;&gt;workflow.cwl#star_samtools_stringtie_prepde_deseq2 -->
<g id="edge56" class="edge"><title>workflow.cwl#star_samtools_stringtie_prepde&#45;&gt;workflow.cwl#star_samtools_stringtie_prepde_deseq2</title>
<path fill="none" stroke="black" d="M2726.82,-144.411C2711.6,-135.064 2692.39,-123.268 2675.9,-113.141"/>
<polygon fill="black" stroke="black" points="2677.41,-109.963 2667.06,-107.713 2673.75,-115.928 2677.41,-109.963"/>
</g>
<!-- workflow.cwl#prepde_folder -->
<g id="node31" class="node"><title>workflow.cwl#prepde_folder</title>
<ellipse fill="none" stroke="black" cx="2866.84" cy="-90" rx="59.5901" ry="18"/>
<text text-anchor="middle" x="2866.84" y="-86.3" font-family="Times,serif" font-size="14.00">prepde_folder</text>
</g>
<!-- workflow.cwl#star_samtools_stringtie_prepde&#45;&gt;workflow.cwl#prepde_folder -->
<g id="edge21" class="edge"><title>workflow.cwl#star_samtools_stringtie_prepde&#45;&gt;workflow.cwl#prepde_folder</title>
<path fill="none" stroke="black" d="M2780.62,-144.411C2796.26,-134.723 2816.14,-122.404 2832.88,-112.039"/>
<polygon fill="black" stroke="black" points="2835.14,-114.752 2841.8,-106.511 2831.46,-108.802 2835.14,-114.752"/>
</g>
<!-- workflow.cwl#star_3 -->
<g id="node30" class="node"><title>workflow.cwl#star_3</title>
<ellipse fill="none" stroke="black" cx="2638.84" cy="-378" rx="32.4942" ry="18"/>
<text text-anchor="middle" x="2638.84" y="-374.3" font-family="Times,serif" font-size="14.00">star_3</text>
</g>
<!-- workflow.cwl#star_3&#45;&gt;workflow.cwl#star_samtools_3 -->
<g id="edge32" class="edge"><title>workflow.cwl#star_3&#45;&gt;workflow.cwl#star_samtools_3</title>
<path fill="none" stroke="black" d="M2656.25,-362.496C2667.55,-353.078 2682.52,-340.602 2695.4,-329.865"/>
<polygon fill="black" stroke="black" points="2697.66,-332.538 2703.1,-323.448 2693.18,-327.161 2697.66,-332.538"/>
</g>
<!-- workflow.cwl#star_3&#45;&gt;workflow.cwl#star_folder -->
<g id="edge59" class="edge"><title>workflow.cwl#star_3&#45;&gt;workflow.cwl#star_folder</title>
<path fill="none" stroke="black" d="M2627.27,-361.116C2620.99,-352.505 2613.1,-341.667 2606.02,-331.957"/>
<polygon fill="black" stroke="black" points="2608.8,-329.819 2600.08,-323.797 2603.14,-333.941 2608.8,-329.819"/>
</g>
<!-- workflow.cwl#star_4 -->
<g id="node32" class="node"><title>workflow.cwl#star_4</title>
<ellipse fill="none" stroke="black" cx="2359.84" cy="-378" rx="32.4942" ry="18"/>
<text text-anchor="middle" x="2359.84" y="-374.3" font-family="Times,serif" font-size="14.00">star_4</text>
</g>
<!-- workflow.cwl#star_4&#45;&gt;workflow.cwl#star_folder -->
<g id="edge60" class="edge"><title>workflow.cwl#star_4&#45;&gt;workflow.cwl#star_folder</title>
<path fill="none" stroke="black" d="M2387.8,-368.417C2426.13,-356.648 2495.49,-335.354 2541.61,-321.194"/>
<polygon fill="black" stroke="black" points="2542.83,-324.479 2551.37,-318.198 2540.78,-317.787 2542.83,-324.479"/>
</g>
<!-- workflow.cwl#star_samtools_4 -->
<g id="node39" class="node"><title>workflow.cwl#star_samtools_4</title>
<ellipse fill="none" stroke="black" cx="2298.84" cy="-306" rx="68.4888" ry="18"/>
<text text-anchor="middle" x="2298.84" y="-302.3" font-family="Times,serif" font-size="14.00">star_samtools_4</text>
</g>
<!-- workflow.cwl#star_4&#45;&gt;workflow.cwl#star_samtools_4 -->
<g id="edge8" class="edge"><title>workflow.cwl#star_4&#45;&gt;workflow.cwl#star_samtools_4</title>
<path fill="none" stroke="black" d="M2346.3,-361.465C2338.66,-352.693 2328.93,-341.529 2320.27,-331.596"/>
<polygon fill="black" stroke="black" points="2322.83,-329.201 2313.62,-323.962 2317.55,-333.8 2322.83,-329.201"/>
</g>
<!-- workflow.cwl#star_samtools_2&#45;&gt;workflow.cwl#star_samtools_folder -->
<g id="edge4" class="edge"><title>workflow.cwl#star_samtools_2&#45;&gt;workflow.cwl#star_samtools_folder</title>
<path fill="none" stroke="black" d="M2828.47,-293.284C2779.94,-281.528 2704.93,-263.36 2651.57,-250.435"/>
<polygon fill="black" stroke="black" points="2652.07,-246.957 2641.53,-248.005 2650.43,-253.761 2652.07,-246.957"/>
</g>
<!-- workflow.cwl#star_samtools_stringtie_2 -->
<g id="node41" class="node"><title>workflow.cwl#star_samtools_stringtie_2</title>
<ellipse fill="none" stroke="black" cx="3013.84" cy="-234" rx="101.282" ry="18"/>
<text text-anchor="middle" x="3013.84" y="-230.3" font-family="Times,serif" font-size="14.00">star_samtools_stringtie_2</text>
</g>
<!-- workflow.cwl#star_samtools_2&#45;&gt;workflow.cwl#star_samtools_stringtie_2 -->
<g id="edge25" class="edge"><title>workflow.cwl#star_samtools_2&#45;&gt;workflow.cwl#star_samtools_stringtie_2</title>
<path fill="none" stroke="black" d="M2906.91,-289.638C2926.25,-279.752 2951.65,-266.775 2972.84,-255.949"/>
<polygon fill="black" stroke="black" points="2974.62,-258.968 2981.94,-251.301 2971.44,-252.734 2974.62,-258.968"/>
</g>
<!-- workflow.cwl#star_samtools_stringtie_3&#45;&gt;workflow.cwl#star_samtools_stringtie_folder -->
<g id="edge66" class="edge"><title>workflow.cwl#star_samtools_stringtie_3&#45;&gt;workflow.cwl#star_samtools_stringtie_folder</title>
<path fill="none" stroke="black" d="M2725.9,-220.405C2663.13,-208.592 2569.14,-190.906 2502.09,-178.29"/>
<polygon fill="black" stroke="black" points="2502.46,-174.798 2491.99,-176.388 2501.17,-181.677 2502.46,-174.798"/>
</g>
<!-- workflow.cwl#star_samtools_stringtie_3&#45;&gt;workflow.cwl#star_samtools_stringtie_prepde -->
<g id="edge62" class="edge"><title>workflow.cwl#star_samtools_stringtie_3&#45;&gt;workflow.cwl#star_samtools_stringtie_prepde</title>
<path fill="none" stroke="black" d="M2783.4,-216.055C2778.92,-208.007 2773.45,-198.205 2768.45,-189.226"/>
<polygon fill="black" stroke="black" points="2771.39,-187.308 2763.47,-180.275 2765.27,-190.714 2771.39,-187.308"/>
</g>
<!-- workflow.cwl#hisat2_samtools_stringtie_prepde_deseq2&#45;&gt;workflow.cwl#hisat2_samtools_stringtie_prepde_deseq2_folder -->
<g id="edge55" class="edge"><title>workflow.cwl#hisat2_samtools_stringtie_prepde_deseq2&#45;&gt;workflow.cwl#hisat2_samtools_stringtie_prepde_deseq2_folder</title>
<path fill="none" stroke="black" d="M705.84,-71.6966C705.84,-63.9827 705.84,-54.7125 705.84,-46.1124"/>
<polygon fill="black" stroke="black" points="709.34,-46.1043 705.84,-36.1043 702.34,-46.1044 709.34,-46.1043"/>
</g>
<!-- workflow.cwl#hisat2_samtools_stringtie_1 -->
<g id="node38" class="node"><title>workflow.cwl#hisat2_samtools_stringtie_1</title>
<ellipse fill="none" stroke="black" cx="789.84" cy="-234" rx="109.681" ry="18"/>
<text text-anchor="middle" x="789.84" y="-230.3" font-family="Times,serif" font-size="14.00">hisat2_samtools_stringtie_1</text>
</g>
<!-- workflow.cwl#hisat2_samtools_stringtie_1&#45;&gt;workflow.cwl#hisat2_samtools_stringtie_prepde -->
<g id="edge38" class="edge"><title>workflow.cwl#hisat2_samtools_stringtie_1&#45;&gt;workflow.cwl#hisat2_samtools_stringtie_prepde</title>
<path fill="none" stroke="black" d="M769.506,-216.055C758.776,-207.113 745.447,-196.005 733.762,-186.268"/>
<polygon fill="black" stroke="black" points="735.91,-183.502 725.987,-179.789 731.429,-188.88 735.91,-183.502"/>
</g>
<!-- workflow.cwl#hisat2_samtools_stringtie_1&#45;&gt;workflow.cwl#hisat2_samtools_stringtie_folder -->
<g id="edge11" class="edge"><title>workflow.cwl#hisat2_samtools_stringtie_1&#45;&gt;workflow.cwl#hisat2_samtools_stringtie_folder</title>
<path fill="none" stroke="black" d="M717.403,-220.324C649.564,-208.452 548.119,-190.699 476.121,-178.099"/>
<polygon fill="black" stroke="black" points="476.617,-174.633 466.163,-176.357 475.41,-181.528 476.617,-174.633"/>
</g>
<!-- workflow.cwl#star_samtools_4&#45;&gt;workflow.cwl#star_samtools_folder -->
<g id="edge6" class="edge"><title>workflow.cwl#star_samtools_4&#45;&gt;workflow.cwl#star_samtools_folder</title>
<path fill="none" stroke="black" d="M2347.21,-293.284C2395.75,-281.528 2470.75,-263.36 2524.11,-250.435"/>
<polygon fill="black" stroke="black" points="2525.25,-253.761 2534.15,-248.005 2523.61,-246.957 2525.25,-253.761"/>
</g>
<!-- workflow.cwl#star_samtools_stringtie_4 -->
<g id="node42" class="node"><title>workflow.cwl#star_samtools_stringtie_4</title>
<ellipse fill="none" stroke="black" cx="2161.84" cy="-234" rx="101.282" ry="18"/>
<text text-anchor="middle" x="2161.84" y="-230.3" font-family="Times,serif" font-size="14.00">star_samtools_stringtie_4</text>
</g>
<!-- workflow.cwl#star_samtools_4&#45;&gt;workflow.cwl#star_samtools_stringtie_4 -->
<g id="edge33" class="edge"><title>workflow.cwl#star_samtools_4&#45;&gt;workflow.cwl#star_samtools_stringtie_4</title>
<path fill="none" stroke="black" d="M2268.78,-289.638C2249.43,-279.752 2224.03,-266.775 2202.84,-255.949"/>
<polygon fill="black" stroke="black" points="2204.24,-252.734 2193.74,-251.301 2201.06,-258.968 2204.24,-252.734"/>
</g>
<!-- workflow.cwl#hisat2_2 -->
<g id="node40" class="node"><title>workflow.cwl#hisat2_2</title>
<ellipse fill="none" stroke="black" cx="614.84" cy="-378" rx="40.0939" ry="18"/>
<text text-anchor="middle" x="614.84" y="-374.3" font-family="Times,serif" font-size="14.00">hisat2_2</text>
</g>
<!-- workflow.cwl#hisat2_2&#45;&gt;workflow.cwl#hisat2_samtools_2 -->
<g id="edge34" class="edge"><title>workflow.cwl#hisat2_2&#45;&gt;workflow.cwl#hisat2_samtools_2</title>
<path fill="none" stroke="black" d="M602.316,-360.765C595.761,-352.268 587.591,-341.677 580.239,-332.146"/>
<polygon fill="black" stroke="black" points="582.929,-329.904 574.05,-324.124 577.387,-334.18 582.929,-329.904"/>
</g>
<!-- workflow.cwl#hisat2_2&#45;&gt;workflow.cwl#hisat2_folder -->
<g id="edge48" class="edge"><title>workflow.cwl#hisat2_2&#45;&gt;workflow.cwl#hisat2_folder</title>
<path fill="none" stroke="black" d="M635.624,-362.155C649.15,-352.493 667.029,-339.722 682.176,-328.903"/>
<polygon fill="black" stroke="black" points="684.622,-331.457 690.725,-322.797 680.553,-325.761 684.622,-331.457"/>
</g>
<!-- workflow.cwl#star_samtools_stringtie_2&#45;&gt;workflow.cwl#star_samtools_stringtie_folder -->
<g id="edge68" class="edge"><title>workflow.cwl#star_samtools_stringtie_2&#45;&gt;workflow.cwl#star_samtools_stringtie_folder</title>
<path fill="none" stroke="black" d="M2941.06,-221.401C2928.33,-219.503 2915.21,-217.627 2902.84,-216 2774.06,-199.066 2625.43,-183.292 2527.65,-173.431"/>
<polygon fill="black" stroke="black" points="2527.77,-169.925 2517.47,-172.407 2527.06,-176.89 2527.77,-169.925"/>
</g>
<!-- workflow.cwl#star_samtools_stringtie_2&#45;&gt;workflow.cwl#star_samtools_stringtie_prepde -->
<g id="edge64" class="edge"><title>workflow.cwl#star_samtools_stringtie_2&#45;&gt;workflow.cwl#star_samtools_stringtie_prepde</title>
<path fill="none" stroke="black" d="M2960.6,-218.666C2919.71,-207.658 2863.05,-192.403 2819.38,-180.645"/>
<polygon fill="black" stroke="black" points="2820.27,-177.261 2809.71,-178.041 2818.45,-184.02 2820.27,-177.261"/>
</g>
<!-- workflow.cwl#star_samtools_stringtie_4&#45;&gt;workflow.cwl#star_samtools_stringtie_folder -->
<g id="edge67" class="edge"><title>workflow.cwl#star_samtools_stringtie_4&#45;&gt;workflow.cwl#star_samtools_stringtie_folder</title>
<path fill="none" stroke="black" d="M2215.19,-218.581C2255.86,-207.59 2312.06,-192.4 2355.43,-180.677"/>
<polygon fill="black" stroke="black" points="2356.58,-183.993 2365.32,-178.005 2354.76,-177.235 2356.58,-183.993"/>
</g>
<!-- workflow.cwl#star_samtools_stringtie_4&#45;&gt;workflow.cwl#star_samtools_stringtie_prepde -->
<g id="edge63" class="edge"><title>workflow.cwl#star_samtools_stringtie_4&#45;&gt;workflow.cwl#star_samtools_stringtie_prepde</title>
<path fill="none" stroke="black" d="M2234.62,-221.404C2247.35,-219.505 2260.47,-217.628 2272.84,-216 2400.55,-199.192 2547.82,-183.506 2645.41,-173.627"/>
<polygon fill="black" stroke="black" points="2645.99,-177.087 2655.58,-172.6 2645.28,-170.122 2645.99,-177.087"/>
</g>
<!-- workflow.cwl#hisat2_samtools_1&#45;&gt;workflow.cwl#hisat2_samtools_htseq_1 -->
<g id="edge2" class="edge"><title>workflow.cwl#hisat2_samtools_1&#45;&gt;workflow.cwl#hisat2_samtools_htseq_1</title>
<path fill="none" stroke="black" d="M918.611,-293.062C928.934,-291.107 939.69,-289.299 949.84,-288 1228.03,-252.411 1300.95,-281.645 1579.84,-252 1589.31,-250.993 1599.21,-249.736 1609.03,-248.364"/>
<polygon fill="black" stroke="black" points="1609.8,-251.789 1619.2,-246.898 1608.8,-244.861 1609.8,-251.789"/>
</g>
<!-- workflow.cwl#hisat2_samtools_1&#45;&gt;workflow.cwl#hisat2_samtools_folder -->
<g id="edge41" class="edge"><title>workflow.cwl#hisat2_samtools_1&#45;&gt;workflow.cwl#hisat2_samtools_folder</title>
<path fill="none" stroke="black" d="M812.942,-292.727C763.462,-281.025 688.734,-263.353 634.999,-250.646"/>
<polygon fill="black" stroke="black" points="635.758,-247.229 625.221,-248.333 634.147,-254.041 635.758,-247.229"/>
</g>
<!-- workflow.cwl#hisat2_samtools_1&#45;&gt;workflow.cwl#hisat2_samtools_stringtie_1 -->
<g id="edge13" class="edge"><title>workflow.cwl#hisat2_samtools_1&#45;&gt;workflow.cwl#hisat2_samtools_stringtie_1</title>
<path fill="none" stroke="black" d="M847.066,-288.411C837.677,-279.648 825.982,-268.732 815.616,-259.057"/>
<polygon fill="black" stroke="black" points="817.706,-256.221 808.008,-251.956 812.93,-261.338 817.706,-256.221"/>
</g>
<!-- workflow.cwl#hisat2_samtools_htseq_3&#45;&gt;workflow.cwl#hisat2_samtools_htseq_folder -->
<g id="edge29" class="edge"><title>workflow.cwl#hisat2_samtools_htseq_3&#45;&gt;workflow.cwl#hisat2_samtools_htseq_folder</title>
<path fill="none" stroke="black" d="M1326.51,-221.441C1401.89,-209.282 1520.58,-190.139 1601.42,-177.101"/>
<polygon fill="black" stroke="black" points="1602.26,-180.51 1611.57,-175.462 1601.14,-173.599 1602.26,-180.51"/>
</g>
<!-- workflow.cwl#htseq_prepare -->
<g id="node46" class="node"><title>workflow.cwl#htseq_prepare</title>
<ellipse fill="none" stroke="black" cx="1688.84" cy="-306" rx="59.5901" ry="18"/>
<text text-anchor="middle" x="1688.84" y="-302.3" font-family="Times,serif" font-size="14.00">htseq_prepare</text>
</g>
<!-- workflow.cwl#htseq_prepare&#45;&gt;workflow.cwl#hisat2_samtools_htseq_4 -->
<g id="edge3" class="edge"><title>workflow.cwl#htseq_prepare&#45;&gt;workflow.cwl#hisat2_samtools_htseq_4</title>
<path fill="none" stroke="black" d="M1728.14,-292.324C1762,-281.401 1811.29,-265.501 1849.37,-253.216"/>
<polygon fill="black" stroke="black" points="1850.85,-256.416 1859.29,-250.015 1848.7,-249.754 1850.85,-256.416"/>
</g>
<!-- workflow.cwl#htseq_prepare&#45;&gt;workflow.cwl#hisat2_samtools_htseq_1 -->
<g id="edge44" class="edge"><title>workflow.cwl#htseq_prepare&#45;&gt;workflow.cwl#hisat2_samtools_htseq_1</title>
<path fill="none" stroke="black" d="M1688.84,-287.697C1688.84,-279.983 1688.84,-270.712 1688.84,-262.112"/>
<polygon fill="black" stroke="black" points="1692.34,-262.104 1688.84,-252.104 1685.34,-262.104 1692.34,-262.104"/>
</g>
<!-- workflow.cwl#htseq_prepare&#45;&gt;workflow.cwl#htseq_prepare_folder -->
<g id="edge35" class="edge"><title>workflow.cwl#htseq_prepare&#45;&gt;workflow.cwl#htseq_prepare_folder</title>
<path fill="none" stroke="black" d="M1748.6,-304.136C1832.97,-301.506 1980.47,-291.255 2013.84,-252 2030.15,-232.81 2013.63,-206.368 1996.55,-187.299"/>
<polygon fill="black" stroke="black" points="1998.96,-184.747 1989.55,-179.875 1993.86,-189.55 1998.96,-184.747"/>
</g>
<!-- workflow.cwl#htseq_prepare&#45;&gt;workflow.cwl#hisat2_samtools_htseq_2 -->
<g id="edge16" class="edge"><title>workflow.cwl#htseq_prepare&#45;&gt;workflow.cwl#hisat2_samtools_htseq_2</title>
<path fill="none" stroke="black" d="M1649.54,-292.324C1615.68,-281.401 1566.39,-265.501 1528.31,-253.216"/>
<polygon fill="black" stroke="black" points="1528.98,-249.754 1518.39,-250.015 1526.83,-256.416 1528.98,-249.754"/>
</g>
<!-- workflow.cwl#htseq_prepare&#45;&gt;workflow.cwl#hisat2_samtools_htseq_3 -->
<g id="edge57" class="edge"><title>workflow.cwl#htseq_prepare&#45;&gt;workflow.cwl#hisat2_samtools_htseq_3</title>
<path fill="none" stroke="black" d="M1637.35,-296.695C1562.98,-284.699 1424.74,-262.403 1336.4,-248.155"/>
<polygon fill="black" stroke="black" points="1336.85,-244.681 1326.42,-246.544 1335.73,-251.592 1336.85,-244.681"/>
</g>
</g>
</svg>
